<svg width="15" height="16" viewBox="0 0 15 16" fill="none" xmlns="http://www.w3.org/2000/svg">
<path fill-rule="evenodd" clip-rule="evenodd" d="M0 3C0 1.48122 1.23122 0.25 2.75 0.25H11.75C13.2688 0.25 14.5 1.48122 14.5 3V13C14.5 14.5188 13.2688 15.75 11.75 15.75H2.75C1.23122 15.75 0 14.5188 0 13V3ZM2.75 1.75C2.05964 1.75 1.5 2.30964 1.5 3V13C1.5 13.6904 2.05964 14.25 2.75 14.25H11.75C12.4404 14.25 13 13.6904 13 13V3C13 2.30964 12.4404 1.75 11.75 1.75H2.75Z" fill="black"/>
<path fill-rule="evenodd" clip-rule="evenodd" d="M6.75 15L6.75 6H8.25V15H6.75Z" fill="black"/>
<path fill-rule="evenodd" clip-rule="evenodd" d="M0.75 5H13.75V6.5H0.75V5Z" fill="black"/>
</svg>
